<svg xmlns="http://www.w3.org/2000/svg" xmlns:xlink="http://www.w3.org/1999/xlink" width="60" zoomAndPan="magnify" viewBox="0 0 45 37.5" height="50" preserveAspectRatio="xMidYMid meet" version="1.0"><defs><clipPath id="d8122e9a54"><path d="M 1.105469 1.480469 L 44.035156 1.480469 L 44.035156 34.785156 L 1.105469 34.785156 Z M 1.105469 1.480469 " clip-rule="nonzero"/></clipPath></defs><g clip-path="url(#d8122e9a54)"><path fill="#000000" d="M 17.132812 9.09375 C 17.199219 9.066406 17.21875 8.578125 17.238281 8.503906 C 17.246094 8.425781 17.285156 7.9375 17.351562 7.910156 C 18.390625 7.394531 19.449219 6.9375 20.535156 6.535156 C 24.71875 5 29.40625 4.324219 33.753906 5.5625 C 37.328125 6.585938 40.636719 8.882812 42.503906 12.136719 C 43.496094 13.855469 44.007812 15.808594 44.019531 17.785156 C 44.027344 18.738281 43.894531 19.675781 43.734375 20.597656 C 43.5625 21.5625 43.359375 22.507812 43.039062 23.433594 C 41.65625 27.375 38.605469 30.40625 34.90625 32.238281 C 30.800781 34.269531 26.148438 34.785156 21.621094 34.421875 C 19.210938 34.222656 16.808594 33.804688 14.464844 33.222656 C 12.652344 32.78125 10.871094 32.210938 9.175781 31.4375 C 5.886719 29.941406 2.828125 27.515625 1.75 23.929688 C 1.109375 21.8125 1.320312 19.691406 1.738281 17.566406 C 2.148438 15.496094 3.035156 13.578125 4.273438 11.878906 C 6.808594 8.425781 10.585938 5.898438 14.464844 4.179688 C 18.5625 2.367188 23.050781 1.480469 27.53125 1.574219 C 27.472656 1.574219 27.386719 2.769531 27.3125 2.769531 C 26.253906 2.738281 25.1875 2.769531 24.128906 2.855469 C 19.894531 3.199219 15.742188 4.4375 12.015625 6.460938 C 8.441406 8.40625 5.019531 11.097656 3.007812 14.703125 C 2.503906 15.621094 2.09375 16.582031 1.808594 17.585938 C 1.75 17.792969 1.703125 18.015625 1.644531 18.234375 C 1.519531 18.699219 1.703125 17.777344 1.664062 18.101562 C 1.636719 18.386719 1.585938 18.671875 1.570312 18.957031 C 1.53125 19.453125 1.53125 19.960938 1.570312 20.457031 C 1.691406 22.375 2.359375 24.207031 3.503906 25.75 C 5.601562 28.59375 8.953125 30.253906 12.234375 31.324219 C 14.167969 31.953125 16.167969 32.390625 18.171875 32.746094 C 20.554688 33.15625 22.976562 33.394531 25.394531 33.316406 C 29.523438 33.203125 33.667969 32.171875 37.148438 29.882812 C 38.804688 28.785156 40.28125 27.410156 41.4375 25.789062 C 42.007812 24.96875 42.503906 24.101562 42.894531 23.183594 C 43.09375 22.71875 43.277344 22.242188 43.429688 21.753906 C 43.503906 21.515625 43.570312 21.277344 43.628906 21.039062 C 43.65625 20.914062 43.683594 20.789062 43.714844 20.667969 C 43.820312 20.226562 43.65625 21.144531 43.703125 20.695312 C 43.90625 18.738281 43.789062 16.832031 43.085938 14.96875 C 42.457031 13.308594 41.4375 11.8125 40.179688 10.574219 C 37.480469 7.890625 33.8125 6.394531 30.039062 6.136719 C 25.566406 5.839844 21.117188 7.128906 17.132812 9.09375 Z M 17.132812 9.09375 " fill-opacity="1" fill-rule="nonzero"/></g></svg>