<svg xmlns="http://www.w3.org/2000/svg" xmlns:xlink="http://www.w3.org/1999/xlink" width="100" zoomAndPan="magnify" viewBox="0 0 75 67.499998" height="90" preserveAspectRatio="xMidYMid meet" version="1.0"><defs><clipPath id="b0f1b9d037"><path d="M 19.15625 11 L 56.382812 11 L 56.382812 55.660156 L 19.15625 55.660156 Z M 19.15625 11 " clip-rule="nonzero"/></clipPath></defs><g clip-path="url(#b0f1b9d037)"><path fill="#132933" d="M 41.945312 55.890625 L 41.308594 55.890625 C 40.953125 55.847656 40.589844 55.824219 40.230469 55.820312 C 39.746094 55.816406 39.386719 55.808594 39.148438 55.796875 C 38.613281 55.777344 38.121094 55.777344 37.679688 55.804688 C 37.136719 55.839844 36.566406 55.804688 36.011719 55.847656 C 35.683594 55.875 35.359375 55.875 35.03125 55.890625 L 35 55.890625 C 34.824219 55.878906 34.648438 55.863281 34.472656 55.84375 C 34.265625 55.820312 34.066406 55.832031 33.859375 55.789062 C 33.773438 55.769531 33.6875 55.753906 33.605469 55.738281 C 33.203125 55.667969 32.855469 55.507812 32.566406 55.265625 C 31.804688 54.621094 32.582031 53.625 33.21875 53.34375 C 33.273438 53.320312 33.28125 53.289062 33.238281 53.246094 C 33.144531 53.160156 33.0625 53.066406 32.984375 52.96875 C 32.492188 52.347656 32.0625 51.671875 31.695312 50.949219 C 31.628906 50.824219 31.566406 50.707031 31.503906 50.601562 C 31.480469 50.558594 31.464844 50.5625 31.453125 50.609375 C 31.300781 51.316406 31.144531 52 30.984375 52.667969 C 30.855469 53.222656 30.710938 53.699219 30.5625 54.09375 C 30.308594 54.75 29.941406 55.285156 29.238281 55.550781 C 28.449219 55.851562 27.582031 55.910156 26.644531 55.722656 C 26.394531 55.671875 26.175781 55.582031 25.996094 55.449219 C 25.691406 55.226562 25.636719 54.863281 25.664062 54.5 C 25.679688 54.304688 25.71875 54.136719 25.785156 54 C 25.996094 53.5625 26.351562 53.300781 26.851562 53.210938 C 27.519531 53.09375 27.832031 52.824219 28.023438 52.144531 C 28.050781 52.046875 28.089844 51.980469 28.074219 51.867188 C 28.070312 51.84375 28.074219 51.824219 28.082031 51.800781 C 28.113281 51.703125 28.132812 51.601562 28.136719 51.5 C 28.15625 50.882812 28.144531 50.378906 28.09375 49.984375 C 28.0625 49.710938 28.09375 49.4375 28.039062 49.167969 C 27.996094 48.953125 28.03125 48.734375 27.980469 48.527344 C 27.949219 48.398438 27.9375 48.265625 27.941406 48.132812 C 27.945312 47.96875 27.878906 47.824219 27.875 47.664062 C 27.875 47.519531 27.855469 47.375 27.820312 47.230469 C 27.800781 47.167969 27.816406 47.109375 27.808594 47.050781 C 27.644531 45.894531 27.484375 44.734375 27.324219 43.578125 C 27.277344 43.234375 27.21875 42.851562 27.148438 42.433594 C 26.90625 41.023438 26.453125 39.691406 25.789062 38.441406 C 25.136719 37.210938 24.351562 36.027344 23.597656 34.867188 C 22.902344 33.800781 22.304688 32.667969 22.082031 31.425781 C 22.050781 31.257812 22.03125 31.085938 22.023438 30.917969 C 22.015625 30.761719 22.003906 30.59375 21.988281 30.414062 C 21.964844 30.097656 22.03125 29.792969 22.023438 29.480469 C 22.023438 29.375 22.035156 29.269531 22.066406 29.167969 C 22.105469 29.027344 22.09375 28.894531 22.121094 28.75 C 22.230469 28.238281 22.363281 27.710938 22.527344 27.171875 C 22.65625 26.757812 22.75 26.320312 22.808594 25.882812 C 22.820312 25.761719 22.839844 25.640625 22.855469 25.519531 C 22.875 25.398438 22.886719 25.28125 22.886719 25.164062 C 22.902344 24.613281 22.902344 24.109375 22.882812 23.648438 C 22.875 23.449219 22.839844 23.203125 22.785156 22.914062 C 22.691406 22.429688 22.476562 21.972656 22.074219 21.714844 C 21.839844 21.566406 21.5625 21.414062 21.25 21.261719 C 20.511719 20.898438 19.976562 20.375 19.644531 19.699219 C 19.542969 19.492188 19.488281 19.269531 19.480469 19.03125 C 19.472656 18.824219 19.328125 18.648438 19.265625 18.453125 C 19.199219 18.257812 19.191406 18.0625 19.238281 17.875 C 19.253906 17.8125 19.289062 17.773438 19.351562 17.753906 C 19.503906 17.703125 19.652344 17.65625 19.792969 17.617188 C 20.378906 17.4375 20.78125 17.019531 20.890625 16.429688 C 21 15.835938 21.402344 15.457031 21.914062 15.164062 C 22.5 14.832031 23.136719 14.585938 23.816406 14.425781 C 23.851562 14.417969 23.886719 14.414062 23.917969 14.417969 C 23.941406 14.417969 23.964844 14.414062 23.984375 14.402344 C 24.042969 14.363281 24.105469 14.347656 24.171875 14.355469 C 24.199219 14.359375 24.214844 14.347656 24.21875 14.320312 C 24.265625 14.035156 24.289062 13.761719 24.285156 13.503906 C 24.28125 13.226562 24.359375 12.976562 24.355469 12.699219 C 24.351562 12.535156 24.40625 12.382812 24.421875 12.214844 C 24.4375 12.070312 24.472656 11.917969 24.535156 11.753906 C 24.660156 11.414062 24.953125 11.40625 25.15625 11.683594 C 25.253906 11.816406 25.367188 11.9375 25.457031 12.078125 C 25.898438 12.769531 26.335938 13.492188 26.765625 14.242188 C 26.789062 14.285156 26.816406 14.289062 26.851562 14.25 C 27.386719 13.675781 27.960938 13.089844 28.578125 12.492188 C 28.96875 12.105469 29.363281 11.757812 29.753906 11.4375 C 30.015625 11.226562 30.441406 10.988281 30.71875 11.269531 C 30.796875 11.34375 30.875 11.507812 30.945312 11.75 C 31.035156 12.042969 31.089844 12.335938 31.117188 12.636719 C 31.128906 12.796875 31.144531 12.949219 31.164062 13.085938 C 31.183594 13.242188 31.195312 13.386719 31.195312 13.527344 C 31.214844 14.421875 31.257812 15.269531 31.199219 16.199219 C 31.195312 16.222656 31.203125 16.242188 31.21875 16.261719 C 31.933594 17.15625 32.492188 18.011719 32.582031 19.109375 C 32.648438 19.886719 32.507812 20.539062 32.285156 21.28125 C 32.109375 21.859375 32.054688 22.40625 32.125 22.917969 C 32.238281 23.75 32.648438 24.355469 33.363281 24.734375 C 33.601562 24.859375 33.828125 24.992188 34.050781 25.128906 C 34.441406 25.367188 34.761719 25.664062 35.011719 26.011719 C 35.21875 26.300781 35.421875 26.566406 35.621094 26.8125 C 36.03125 27.320312 36.683594 27.738281 37.261719 28.046875 C 38.59375 28.753906 39.644531 29.3125 40.78125 30.113281 C 43.097656 31.738281 44.925781 34.082031 46.105469 36.675781 C 47.101562 38.863281 47.699219 41.195312 48.105469 43.613281 C 48.125 43.726562 48.140625 43.835938 48.148438 43.953125 C 48.160156 44.09375 48.214844 44.222656 48.210938 44.363281 C 48.203125 44.558594 48.277344 44.730469 48.277344 44.917969 C 48.273438 45.21875 48.339844 45.507812 48.34375 45.808594 C 48.347656 46.300781 48.34375 46.800781 48.339844 47.304688 C 48.339844 47.441406 48.328125 47.578125 48.304688 47.722656 C 48.269531 47.921875 48.285156 48.113281 48.261719 48.316406 C 48.171875 49.066406 48.019531 49.835938 47.808594 50.621094 C 47.679688 51.097656 47.746094 51.488281 48.007812 51.796875 C 48.226562 52.054688 48.503906 52.21875 48.832031 52.277344 C 49.476562 52.398438 50.078125 52.289062 50.632812 51.945312 C 51.992188 51.109375 52.804688 49.492188 53.148438 47.984375 C 53.199219 47.75 53.25 47.511719 53.292969 47.269531 C 53.316406 47.164062 53.328125 47.058594 53.328125 46.957031 C 53.332031 46.8125 53.390625 46.691406 53.394531 46.546875 C 53.398438 46.347656 53.386719 46.15625 53.414062 45.957031 C 53.480469 45.433594 53.410156 44.933594 53.394531 44.414062 C 53.390625 44.289062 53.378906 44.164062 53.363281 44.042969 C 53.34375 43.921875 53.328125 43.792969 53.308594 43.660156 C 53.242188 43.15625 53.132812 42.640625 52.984375 42.113281 C 52.699219 41.105469 52.246094 40.203125 51.628906 39.414062 C 51.394531 39.117188 51.246094 38.890625 51.183594 38.738281 C 50.917969 38.066406 51.074219 37.054688 51.875 36.839844 C 52.125 36.773438 52.488281 36.796875 52.746094 36.90625 C 53.363281 37.164062 53.851562 37.640625 54.253906 38.191406 C 54.769531 38.898438 55.203125 39.691406 55.554688 40.5625 C 56.019531 41.710938 56.335938 42.902344 56.511719 44.125 C 56.546875 44.371094 56.578125 44.613281 56.609375 44.847656 C 56.636719 45.058594 56.652344 45.289062 56.664062 45.542969 C 56.671875 45.785156 56.679688 46.027344 56.691406 46.265625 C 56.71875 46.785156 56.679688 47.320312 56.644531 47.878906 C 56.59375 48.5625 56.476562 49.261719 56.289062 49.972656 C 56.015625 50.996094 55.628906 51.890625 55.117188 52.652344 C 54.550781 53.507812 53.890625 54.15625 53.023438 54.683594 C 52.121094 55.230469 51.082031 55.589844 49.910156 55.765625 C 49.664062 55.804688 49.453125 55.820312 49.285156 55.824219 C 49.015625 55.824219 48.734375 55.894531 48.472656 55.867188 C 48.183594 55.832031 47.898438 55.832031 47.617188 55.789062 C 47.035156 55.703125 46.59375 55.503906 46.082031 55.308594 C 45.511719 55.09375 44.953125 55.117188 44.402344 55.382812 C 43.910156 55.617188 43.378906 55.765625 42.8125 55.816406 C 42.523438 55.84375 42.234375 55.867188 41.945312 55.890625 Z M 41.945312 55.890625 " fill-opacity="1" fill-rule="nonzero"/></g></svg>