<svg xmlns="http://www.w3.org/2000/svg" xmlns:xlink="http://www.w3.org/1999/xlink" width="100" zoomAndPan="magnify" viewBox="0 0 75 74.999997" height="100" preserveAspectRatio="xMidYMid meet" version="1.0"><defs><clipPath id="3818a8b0c9"><path d="M 3.75 3.75 L 71.230469 3.75 L 71.230469 71.230469 L 3.75 71.230469 Z M 3.75 3.75 " clip-rule="nonzero"/></clipPath><clipPath id="8f297a0845"><path d="M 23 12.828125 L 53.183594 12.828125 L 53.183594 62.167969 L 23 62.167969 Z M 23 12.828125 " clip-rule="nonzero"/></clipPath><clipPath id="66d1f0c2c4"><path d="M 18 21 L 44 21 L 44 62.175781 L 18 62.175781 Z M 18 21 " clip-rule="nonzero"/></clipPath></defs><g clip-path="url(#3818a8b0c9)"><path fill="#f1f5f6" d="M 71.25 37.5 C 71.25 38.605469 71.195312 39.707031 71.085938 40.808594 C 70.980469 41.90625 70.816406 43 70.601562 44.085938 C 70.386719 45.167969 70.117188 46.238281 69.796875 47.296875 C 69.476562 48.355469 69.105469 49.394531 68.679688 50.414062 C 68.257812 51.4375 67.785156 52.433594 67.265625 53.410156 C 66.742188 54.382812 66.175781 55.332031 65.5625 56.25 C 64.949219 57.167969 64.289062 58.054688 63.589844 58.910156 C 62.886719 59.765625 62.144531 60.582031 61.363281 61.363281 C 60.582031 62.144531 59.765625 62.886719 58.910156 63.589844 C 58.054688 64.289062 57.167969 64.949219 56.25 65.5625 C 55.332031 66.175781 54.382812 66.742188 53.410156 67.265625 C 52.433594 67.785156 51.4375 68.257812 50.414062 68.679688 C 49.394531 69.105469 48.355469 69.476562 47.296875 69.796875 C 46.238281 70.117188 45.167969 70.386719 44.085938 70.601562 C 43 70.816406 41.90625 70.980469 40.808594 71.085938 C 39.707031 71.195312 38.605469 71.25 37.5 71.25 C 36.394531 71.25 35.292969 71.195312 34.191406 71.085938 C 33.089844 70.980469 32 70.816406 30.914062 70.601562 C 29.832031 70.386719 28.761719 70.117188 27.703125 69.796875 C 26.644531 69.476562 25.605469 69.105469 24.585938 68.679688 C 23.5625 68.257812 22.566406 67.785156 21.589844 67.265625 C 20.617188 66.742188 19.667969 66.175781 18.75 65.5625 C 17.832031 64.949219 16.945312 64.289062 16.089844 63.589844 C 15.234375 62.886719 14.417969 62.144531 13.636719 61.363281 C 12.851562 60.582031 12.113281 59.765625 11.410156 58.910156 C 10.710938 58.054688 10.050781 57.167969 9.4375 56.25 C 8.824219 55.332031 8.257812 54.382812 7.734375 53.410156 C 7.214844 52.433594 6.742188 51.4375 6.320312 50.414062 C 5.894531 49.394531 5.523438 48.355469 5.203125 47.296875 C 4.882812 46.238281 4.613281 45.167969 4.398438 44.085938 C 4.183594 43 4.019531 41.90625 3.914062 40.808594 C 3.804688 39.707031 3.75 38.605469 3.75 37.5 C 3.75 36.394531 3.804688 35.292969 3.914062 34.191406 C 4.019531 33.089844 4.183594 32 4.398438 30.914062 C 4.613281 29.832031 4.882812 28.761719 5.203125 27.703125 C 5.523438 26.644531 5.894531 25.605469 6.320312 24.585938 C 6.742188 23.5625 7.214844 22.566406 7.734375 21.589844 C 8.257812 20.617188 8.824219 19.667969 9.4375 18.75 C 10.050781 17.832031 10.710938 16.945312 11.410156 16.089844 C 12.113281 15.234375 12.851562 14.417969 13.636719 13.636719 C 14.417969 12.851562 15.234375 12.113281 16.089844 11.410156 C 16.945312 10.710938 17.832031 10.050781 18.75 9.4375 C 19.667969 8.824219 20.617188 8.257812 21.589844 7.734375 C 22.566406 7.214844 23.5625 6.742188 24.585938 6.320312 C 25.605469 5.894531 26.644531 5.523438 27.703125 5.203125 C 28.761719 4.882812 29.832031 4.613281 30.914062 4.398438 C 32 4.183594 33.089844 4.019531 34.191406 3.914062 C 35.292969 3.804688 36.394531 3.75 37.5 3.75 C 38.605469 3.75 39.707031 3.804688 40.808594 3.914062 C 41.90625 4.019531 43 4.183594 44.085938 4.398438 C 45.167969 4.613281 46.238281 4.882812 47.296875 5.203125 C 48.355469 5.523438 49.394531 5.894531 50.414062 6.320312 C 51.4375 6.742188 52.433594 7.214844 53.410156 7.734375 C 54.382812 8.257812 55.332031 8.824219 56.25 9.4375 C 57.167969 10.050781 58.054688 10.710938 58.910156 11.410156 C 59.765625 12.113281 60.582031 12.851562 61.363281 13.636719 C 62.144531 14.417969 62.886719 15.234375 63.589844 16.089844 C 64.289062 16.945312 64.949219 17.832031 65.5625 18.75 C 66.175781 19.667969 66.742188 20.617188 67.265625 21.589844 C 67.785156 22.566406 68.257812 23.5625 68.679688 24.585938 C 69.105469 25.605469 69.476562 26.644531 69.796875 27.703125 C 70.117188 28.761719 70.386719 29.832031 70.601562 30.914062 C 70.816406 32 70.980469 33.089844 71.085938 34.191406 C 71.195312 35.292969 71.25 36.394531 71.25 37.5 Z M 71.25 37.5 " fill-opacity="1" fill-rule="nonzero"/></g><g clip-path="url(#8f297a0845)"><path fill="#132933" d="M 25.714844 62.167969 L 50.488281 62.167969 C 52.183594 62.167969 53.457031 60.617188 53.128906 58.953125 L 44.257812 13.921875 C 44.074219 12.984375 42.855469 12.71875 42.300781 13.5 L 40.214844 16.421875 C 40.0625 16.628906 39.824219 16.753906 39.566406 16.753906 L 36.089844 16.753906 C 35.828125 16.753906 35.585938 16.625 35.4375 16.410156 L 33.289062 13.300781 C 32.769531 12.550781 31.613281 12.730469 31.347656 13.605469 L 23.066406 58.992188 C 22.761719 60.644531 24.035156 62.167969 25.714844 62.167969 " fill-opacity="1" fill-rule="nonzero"/></g><g clip-path="url(#66d1f0c2c4)"><path fill="#8aceeb" d="M 22.882812 52.445312 C 24.027344 53.609375 25.109375 54.707031 25.691406 56.074219 C 26.332031 57.582031 27.082031 60.65625 25.675781 62.167969 L 29.039062 62.167969 C 29.277344 61.46875 29.414062 60.691406 29.429688 59.84375 C 29.460938 58.304688 29.089844 56.507812 28.410156 54.914062 C 27.609375 53.035156 26.277344 51.679688 24.992188 50.371094 C 23.9375 49.300781 22.941406 48.289062 22.335938 47.074219 C 20.953125 44.308594 22.140625 40.5 24.828125 39.085938 C 25.550781 38.703125 25.828125 37.8125 25.449219 37.089844 C 25.066406 36.367188 24.171875 36.089844 23.449219 36.46875 C 19.351562 38.628906 17.597656 44.203125 19.691406 48.394531 C 20.507812 50.027344 21.714844 51.257812 22.882812 52.445312 Z M 38.871094 24.199219 L 37.378906 24.199219 C 37.078125 24.199219 36.925781 24.5625 37.140625 24.777344 L 37.886719 25.523438 C 38.015625 25.65625 38.230469 25.65625 38.363281 25.523438 L 39.109375 24.777344 C 39.320312 24.5625 39.171875 24.199219 38.871094 24.199219 Z M 41.820312 21.742188 C 41.046875 21.742188 40.421875 22.367188 40.421875 23.136719 C 40.421875 23.910156 41.046875 24.535156 41.820312 24.535156 C 42.589844 24.535156 43.214844 23.910156 43.214844 23.136719 C 43.214844 22.367188 42.589844 21.742188 41.820312 21.742188 Z M 34.429688 21.742188 C 33.65625 21.742188 33.03125 22.367188 33.03125 23.136719 C 33.03125 23.910156 33.65625 24.535156 34.429688 24.535156 C 35.199219 24.535156 35.824219 23.910156 35.824219 23.136719 C 35.824219 22.367188 35.199219 21.742188 34.429688 21.742188 " fill-opacity="1" fill-rule="nonzero"/></g><path fill="#ebf164" d="M 27.953125 32.210938 C 31.007812 32.871094 34.859375 33.175781 38.898438 33.074219 C 42.117188 32.992188 45.195312 32.65625 47.84375 32.113281 L 46.984375 27.765625 C 44.847656 28.207031 42.097656 28.558594 38.789062 28.640625 C 34.464844 28.75 31.078125 28.359375 28.75 27.84375 L 27.953125 32.210938 " fill-opacity="1" fill-rule="nonzero"/></svg>