<svg xmlns="http://www.w3.org/2000/svg" xmlns:xlink="http://www.w3.org/1999/xlink" width="500" zoomAndPan="magnify" viewBox="0 0 375 374.999991" height="500" preserveAspectRatio="xMidYMid meet" version="1.0"><defs><clipPath id="1955d21abf"><path d="M 96 116.183594 L 279.230469 116.183594 L 279.230469 258 L 96 258 Z M 96 116.183594 " clip-rule="nonzero"/></clipPath></defs><g clip-path="url(#1955d21abf)"><path fill="#000000" d="M 164.082031 148.757812 C 164.367188 148.636719 164.449219 146.554688 164.53125 146.226562 C 164.570312 145.902344 164.734375 143.820312 165.019531 143.695312 C 169.46875 141.492188 173.996094 139.53125 178.644531 137.820312 C 196.554688 131.246094 216.625 128.347656 235.226562 133.65625 C 250.523438 138.023438 264.679688 147.859375 272.675781 161.78125 C 276.917969 169.128906 279.121094 177.496094 279.160156 185.945312 C 279.203125 190.027344 278.632812 194.027344 277.9375 197.984375 C 277.203125 202.109375 276.347656 206.148438 274.960938 210.109375 C 269.042969 226.96875 255.992188 239.949219 240.164062 247.785156 C 222.582031 256.480469 202.671875 258.683594 183.296875 257.132812 C 172.976562 256.277344 162.695312 254.480469 152.660156 251.988281 C 144.910156 250.113281 137.28125 247.664062 130.019531 244.355469 C 115.945312 237.949219 102.851562 227.582031 98.242188 212.230469 C 95.507812 203.171875 96.40625 194.109375 98.199219 185.003906 C 99.953125 176.148438 103.75 167.941406 109.050781 160.675781 C 119.902344 145.902344 136.058594 135.082031 152.660156 127.734375 C 170.203125 119.980469 189.414062 116.183594 208.589844 116.59375 C 208.34375 116.59375 207.976562 121.695312 207.648438 121.695312 C 203.121094 121.574219 198.554688 121.695312 194.023438 122.0625 C 175.914062 123.53125 158.125 128.839844 142.175781 137.492188 C 126.878906 145.820312 112.234375 157.332031 103.625 172.761719 C 101.464844 176.679688 99.710938 180.800781 98.484375 185.085938 C 98.242188 185.984375 98.035156 186.925781 97.792969 187.863281 C 97.261719 189.863281 98.035156 185.902344 97.875 187.292969 C 97.75 188.515625 97.546875 189.742188 97.464844 190.964844 C 97.304688 193.089844 97.304688 195.25 97.464844 197.375 C 97.996094 205.578125 100.851562 213.414062 105.746094 220.027344 C 114.722656 232.191406 129.082031 239.296875 143.113281 243.867188 C 151.394531 246.5625 159.960938 248.4375 168.527344 249.949219 C 178.726562 251.703125 189.089844 252.726562 199.449219 252.398438 C 217.113281 251.910156 234.859375 247.5 249.75 237.703125 C 256.847656 233.007812 263.171875 227.132812 268.105469 220.191406 C 270.554688 216.679688 272.675781 212.96875 274.347656 209.046875 C 275.203125 207.046875 275.980469 205.007812 276.632812 202.925781 C 276.957031 201.90625 277.242188 200.882812 277.488281 199.863281 C 277.609375 199.332031 277.734375 198.800781 277.855469 198.273438 C 278.304688 196.394531 277.609375 200.3125 277.816406 198.394531 C 278.671875 190.027344 278.183594 181.863281 275.164062 173.902344 C 272.472656 166.800781 268.105469 160.390625 262.722656 155.085938 C 251.175781 143.613281 235.472656 137.207031 219.316406 136.105469 C 200.183594 134.839844 181.132812 140.347656 164.082031 148.757812 Z M 164.082031 148.757812 " fill-opacity="1" fill-rule="nonzero"/></g></svg>