<svg xmlns="http://www.w3.org/2000/svg" xmlns:xlink="http://www.w3.org/1999/xlink" width="40" zoomAndPan="magnify" viewBox="0 0 30 30.000001" height="40" preserveAspectRatio="xMidYMid meet" version="1.0"><defs><clipPath id="b25811ed9a"><path d="M 10.371094 10.148438 L 19.808594 10.148438 L 19.808594 18.859375 L 10.371094 18.859375 Z M 10.371094 10.148438 " clip-rule="nonzero"/></clipPath></defs><g clip-path="url(#b25811ed9a)"><path fill="#132933" d="M 16.632812 10.15625 C 16.613281 10.160156 16.59375 10.160156 16.574219 10.160156 C 15.808594 10.292969 15.386719 11.101562 15.324219 11.816406 C 15.238281 12.464844 15.523438 13.296875 16.234375 13.445312 C 16.335938 13.464844 16.445312 13.453125 16.546875 13.425781 C 17.402344 13.140625 17.785156 12.125 17.660156 11.285156 C 17.625 10.742188 17.214844 10.152344 16.632812 10.15625 Z M 13.382812 10.191406 C 12.90625 10.203125 12.535156 10.6875 12.460938 11.140625 C 12.300781 12.042969 12.710938 13.160156 13.648438 13.445312 C 13.738281 13.460938 13.828125 13.464844 13.914062 13.449219 C 14.550781 13.34375 14.816406 12.636719 14.792969 12.0625 C 14.773438 11.304688 14.378906 10.429688 13.59375 10.21875 C 13.523438 10.199219 13.453125 10.191406 13.382812 10.191406 Z M 18.707031 12.746094 C 17.882812 12.796875 17.316406 13.621094 17.238281 14.386719 C 17.128906 14.941406 17.421875 15.679688 18.054688 15.726562 C 18.9375 15.714844 19.539062 14.773438 19.5625 13.964844 C 19.617188 13.425781 19.300781 12.777344 18.707031 12.746094 Z M 11.496094 12.929688 C 11.144531 12.925781 10.800781 13.136719 10.683594 13.492188 C 10.378906 14.445312 10.992188 15.652344 12.003906 15.855469 C 12.425781 15.925781 12.792969 15.601562 12.898438 15.214844 C 13.121094 14.378906 12.664062 13.414062 11.894531 13.035156 C 11.769531 12.964844 11.632812 12.933594 11.496094 12.929688 Z M 15.1875 14.640625 C 14.5 14.640625 13.804688 14.988281 13.359375 15.507812 C 12.878906 16.113281 12.484375 16.816406 12.332031 17.582031 C 12.144531 18.132812 12.566406 18.765625 13.15625 18.769531 C 13.863281 18.789062 14.46875 18.300781 15.171875 18.265625 C 15.769531 18.175781 16.300781 18.484375 16.839844 18.6875 C 17.296875 18.882812 17.925781 18.808594 18.160156 18.316406 C 18.34375 17.816406 18.074219 17.28125 17.847656 16.835938 C 17.394531 16.117188 16.90625 15.359375 16.15625 14.90625 C 15.859375 14.722656 15.523438 14.640625 15.1875 14.640625 Z M 15.1875 14.640625 " fill-opacity="1" fill-rule="nonzero"/></g></svg>