<svg xmlns="http://www.w3.org/2000/svg" xmlns:xlink="http://www.w3.org/1999/xlink" width="120" zoomAndPan="magnify" viewBox="0 0 90 60" height="80" preserveAspectRatio="xMidYMid meet" version="1.0"><defs><clipPath id="a6722e6f40"><path d="M 7.5 12.75 L 82.5 12.75 L 82.5 45 L 7.5 45 Z M 7.5 12.75 " clip-rule="nonzero"/></clipPath></defs><g clip-path="url(#a6722e6f40)"><path fill="#ffffff" d="M 82.5 39.351562 C 82.5 41.894531 80.445312 43.953125 77.910156 43.953125 C 76.605469 43.953125 75.421875 43.398438 74.578125 42.523438 C 73.15625 43.605469 71.386719 44.253906 69.464844 44.253906 C 67.335938 44.253906 65.386719 43.457031 63.886719 42.148438 C 62.714844 43.277344 61.125 43.953125 59.386719 43.953125 C 56.625 43.953125 54.253906 42.222656 53.308594 39.789062 C 52.050781 40.179688 50.699219 40.375 49.304688 40.375 C 47.175781 40.375 45.148438 39.894531 43.351562 39.023438 C 43.066406 42.359375 40.261719 44.976562 36.855469 44.976562 C 35.460938 44.976562 34.171875 44.539062 33.105469 43.789062 C 31.558594 44.554688 29.804688 44.976562 27.960938 44.976562 C 24.523438 44.976562 21.433594 43.5 19.304688 41.140625 C 18.058594 42.238281 16.425781 42.902344 14.625 42.902344 C 10.679688 42.914062 7.5 39.714844 7.5 35.789062 C 7.5 31.867188 10.679688 28.664062 14.609375 28.664062 C 15.449219 28.664062 16.261719 28.816406 17.011719 29.085938 C 18.691406 24.679688 22.949219 21.539062 27.945312 21.539062 C 30.898438 21.539062 33.601562 22.636719 35.671875 24.457031 C 36.691406 17.839844 42.40625 12.773438 49.289062 12.773438 C 55.46875 12.773438 60.691406 16.847656 62.445312 22.457031 C 64.753906 23.222656 66.511719 25.253906 66.855469 27.734375 C 67.664062 27.476562 68.535156 27.328125 69.433594 27.328125 C 73.753906 27.328125 77.308594 30.574219 77.820312 34.753906 C 77.835938 34.753906 77.863281 34.753906 77.878906 34.753906 C 80.445312 34.738281 82.5 36.8125 82.5 39.351562 Z M 82.5 39.351562 " fill-opacity="1" fill-rule="nonzero"/></g></svg>